/* XPM */
static char *edbf1fd93f664199b9bb426b1e591887S3Jrr4WRajRZ2UBy[] = {
/* columns rows colors chars-per-pixel */
"32 32 90 1 ",
"  c None",
". c #17353F",
"X c #18363E",
"o c #19373E",
"O c #1A373E",
"+ c #1B383E",
"@ c #1D393D",
"# c #1E3A3D",
"$ c #223D3C",
"% c #26403B",
"& c #27403B",
"* c #2A433A",
"= c #344A37",
"- c #354B37",
"; c #364B37",
": c #3A4F35",
"> c #3B4F35",
", c #394E36",
"< c #304738",
"1 c #3C5035",
"2 c #515F2F",
"3 c #4B5B31",
"4 c #4C5C30",
"5 c #4D5D30",
"6 c #53612F",
"7 c #54612E",
"8 c #57642D",
"9 c #5B672C",
"0 c #5C682C",
"q c #606A2B",
"w c #666E2A",
"e c #6F7527",
"r c #677029",
"t c #687129",
"y c #6C7328",
"u c #727726",
"i c #7C7F24",
"p c #0F2F41",
"a c #113040",
"s c #103041",
"d c #123140",
"f c #7C8023",
"g c #7D8023",
"h c #8D8B1F",
"j c #8E8C1F",
"k c #97921C",
"l c #97931C",
"z c #96921D",
"x c #9D971B",
"c c #A59D18",
"v c #A69D18",
"b c #A79E18",
"n c #A79F18",
"m c #A8A017",
"M c #B2A615",
"N c #B7AB13",
"B c #B6A914",
"V c #B8AB13",
"C c #BBAD12",
"Z c #BAAD13",
"A c #BCAE12",
"S c #BFB011",
"D c #808222",
"F c #818322",
"G c #878720",
"H c #868621",
"J c #898920",
"K c #8A8920",
"L c #8B8A20",
"P c #C7B60F",
"I c #CBB90E",
"U c #D1BD0C",
"Y c #D2BE0C",
"T c #D3BF0C",
"R c #C0B111",
"E c #C2B211",
"W c #DDC609",
"Q c #E5CC07",
"! c #E7CD07",
"~ c #E8CE06",
"^ c #E0C808",
"/ c #E1C908",
"( c #EFD304",
") c #EED305",
"_ c #F0D404",
"` c #F7D902",
"' c #FADC01",
"] c #FBDC01",
"[ c #FDDE01",
"{ c #FFDF00",
/* pixels */
"            ppappppp            ",
"         pp&wlAEESlr&pp         ",
"       pp6S~ce5115ec!S6pp       ",
"      p=EI8appppppppa8IE-p      ",
"     pq!rppppppppppppppr!qp     ",
"    puW<pppppppppppppppp<Wua    ",
"   pqW$pppppppppppppppppp$/qp   ",
"  p=!<pppppppppppppppppppp*!-p  ",
"  pEtppppppppppappppppppppptEp  ",
" p6Ippppppppppp=-pppppppppppI6p ",
" pS8pppppppa5l/{{/l3appppppp8Sp ",
" &~appppO0n_{{{{{{{{(c9+ppppa~& ",
"pwcppp7V`{{{{{{{{{{{{{{`N2pppcwp",
"pleppp>l~{{{{{{{{{{{{{{Wl1pppelp",
"pZ5pppppJ>GU{{{{{{{{UG>pppppp2Zp",
"pP>pppppGpOBfDE`]SFfBOppppppp1Ep",
"pP1pppaam*d{{{IJJE{{{#ppppppp1Ea",
"pZ5ppppd]F${{{{{{{{{{#ppppppp5Za",
"plepppppxrs!{{{{{{{{Wapppppppelp",
"prcpppppZxa$eLcMMcLe&ppppppppcrp",
" &~apppa_Nppppppppppppppppppa!& ",
" pS8ppp6{Wpppppppppppppppppp8Sp ",
" p6IpppL]WppppppppppppppppppI6p ",
"  pEtppa-dppppppppppppppppptEp  ",
"  p-!<aspppppppppppppppppp<!-p  ",
"   p0W$pppppppppppppppppp$Wqp   ",
"    puW<pppppppppppppppp<Wup    ",
"     pq!tppppppppppppppt!qp     ",
"      p-EI8appaappppa8IE-p      ",
"       pp6S~ce51>5ec~S6pp       ",
"         pp&wlZEEZlw&pp         ",
"            ppaaappp            "
};
