/* XPM */
static char *_6e50f342016448ce7bfeb317fcf0226UvaFIo356jJ3hGS2[] = {
/* columns rows colors chars-per-pixel */
"16 16 38 1 ",
"  c None",
". c #17353F",
"X c #1D393D",
"o c #1F3B3D",
"O c #243E3B",
"+ c #233D3C",
"@ c #28423A",
"# c #29423A",
"$ c #2F4638",
"% c #324938",
"& c #4A5A31",
"* c #4B5B31",
"= c #4E5D30",
"- c #676F29",
"; c #677029",
": c #737826",
"> c #0F2F41",
", c #133240",
"< c #143240",
"1 c #7F8123",
"2 c #8D8B1F",
"3 c #97921C",
"4 c #9D971B",
"5 c #9E981A",
"6 c #A09919",
"7 c #B7AA13",
"8 c #BDAF12",
"9 c #BEAF12",
"0 c #808222",
"q c #838422",
"w c #8B8A20",
"e c #D5C00B",
"r c #D9C30A",
"t c #E6CC07",
"y c #F2D504",
"u c #F9DB02",
"i c #FADC01",
"p c #FFDF00",
/* pixels */
"     .=--=.     ",
"   oqw&@@&wqo   ",
"  $6+>>>>>>+6$  ",
" o6,>>>>>>>>,6o ",
" q+>>>>..>>>>+q ",
".w>>@:9ii9:@>>w.",
"=&>0ippppppu1>&=",
"-@>>;q7yy70o>>@-",
"-@>,53prrp3>>>@-",
"=&>>5&9ee9&>>>&=",
".w,+t>>>>>>>>>w.",
" 0+%w>>>>>>>>+q ",
" +5,>>>>>>>>,6o ",
"  $6+>>>>>>+6$  ",
"   oqw&@@&wqo   ",
"     .=--=.     "
};
