/* XPM */
static char *_98974a63c264c20d3702976dd596014Dk9bPtE9TcFW3eiU[] = {
/* columns rows colors chars-per-pixel */
"64 64 248 2 ",
"   c None",
".  c #15333F",
"X  c #15343F",
"o  c #16343F",
"O  c #17353F",
"+  c #18353F",
"@  c #19363E",
"#  c #18363F",
"$  c #1A373E",
"%  c #1B383E",
"&  c #1C393D",
"*  c #1D393D",
"=  c #1E3A3D",
"-  c #1F3B3D",
";  c #1C383E",
":  c #253F3B",
">  c #203C3C",
",  c #213C3C",
"<  c #223D3C",
"1  c #233E3C",
"2  c #27413A",
"3  c #26403B",
"4  c #27403B",
"5  c #27413B",
"6  c #28413A",
"7  c #29423A",
"8  c #2A423A",
"9  c #2A433A",
"0  c #2C4439",
"q  c #2D4539",
"w  c #2F4638",
"e  c #2E4639",
"r  c #324937",
"t  c #334937",
"y  c #334A37",
"u  c #344A37",
"i  c #354B37",
"p  c #364B37",
"a  c #364C36",
"s  c #374D36",
"d  c #394E35",
"f  c #3A4F35",
"g  c #3B4F35",
"h  c #384D36",
"j  c #394E36",
"k  c #304738",
"l  c #304838",
"z  c #314838",
"x  c #3C5035",
"c  c #3D5135",
"v  c #3E5134",
"b  c #3E5234",
"n  c #3F5234",
"m  c #505F2F",
"M  c #435533",
"N  c #445632",
"B  c #405334",
"V  c #485931",
"C  c #495931",
"Z  c #495A31",
"A  c #4B5B31",
"S  c #4C5C30",
"D  c #4D5C30",
"F  c #4E5D30",
"G  c #4E5E30",
"H  c #4F5E30",
"J  c #53612E",
"K  c #53612F",
"L  c #54612E",
"P  c #54622E",
"I  c #55622E",
"U  c #57642D",
"Y  c #57642E",
"T  c #58642D",
"R  c #58652D",
"E  c #5B672C",
"W  c #5F692B",
"Q  c #5F6A2B",
"!  c #5E692C",
"~  c #5F692C",
"^  c #606A2B",
"/  c #606B2B",
"(  c #616B2B",
")  c #636D2A",
"_  c #666E29",
"`  c #666F29",
"'  c #676F29",
"]  c #646D2A",
"[  c #6E7527",
"{  c #6F7527",
"}  c #687029",
"|  c #697129",
" . c #6A7128",
".. c #6B7328",
"X. c #6C7428",
"o. c #717726",
"O. c #707627",
"+. c #727826",
"@. c #737826",
"#. c #797D24",
"$. c #787C25",
"%. c #7A7D24",
"&. c #7A7E24",
"*. c #0A2C42",
"=. c #0B2C42",
"-. c #0D2E41",
";. c #0E2E41",
":. c #0E2F41",
">. c #0F2F41",
",. c #0C2D42",
"<. c #0D2D42",
"1. c #0D2E42",
"2. c #102F41",
"3. c #113140",
"4. c #103041",
"5. c #113041",
"6. c #123140",
"7. c #133240",
"8. c #143240",
"9. c #143340",
"0. c #7D8023",
"q. c #7E8023",
"w. c #7E8123",
"e. c #7F8123",
"r. c #8B8A1F",
"t. c #8C8B1F",
"y. c #8F8D1E",
"u. c #8E8C1F",
"i. c #908E1E",
"p. c #918F1E",
"a. c #93901D",
"s. c #94901D",
"d. c #96921C",
"f. c #9A951B",
"g. c #9B951B",
"h. c #9C961B",
"j. c #9C971B",
"k. c #9E971A",
"l. c #98931C",
"z. c #99941C",
"x. c #A19A19",
"c. c #A29B19",
"v. c #A0991A",
"b. c #A59D18",
"n. c #A49D19",
"m. c #A69D18",
"M. c #A8A017",
"N. c #A9A017",
"B. c #AFA416",
"V. c #AFA516",
"C. c #B0A515",
"Z. c #B1A615",
"A. c #B2A715",
"S. c #B0A516",
"D. c #B7AA13",
"F. c #B4A814",
"G. c #B5A914",
"H. c #B6A914",
"J. c #BBAD12",
"K. c #BAAD13",
"L. c #BDAF12",
"P. c #BEAF12",
"I. c #BEB011",
"U. c #BFB011",
"Y. c #808123",
"T. c #838522",
"R. c #858521",
"E. c #858621",
"W. c #868621",
"Q. c #878721",
"!. c #8B8A20",
"~. c #C6B50F",
"^. c #C9B70F",
"/. c #CAB80E",
"(. c #CDBB0D",
"). c #CEBB0D",
"_. c #CFBC0D",
"`. c #D1BD0C",
"'. c #D0BC0D",
"]. c #D0BD0D",
"[. c #D1BD0D",
"{. c #D3BE0C",
"}. c #D4BF0C",
"|. c #C0B111",
" X c #C1B111",
".X c #C1B211",
"XX c #C2B210",
"oX c #C3B310",
"OX c #C4B410",
"+X c #C5B410",
"@X c #D5C00B",
"#X c #D7C20B",
"$X c #D4C00C",
"%X c #D8C20A",
"&X c #D9C30A",
"*X c #DAC40A",
"=X c #DBC50A",
"-X c #DCC509",
";X c #DCC50A",
":X c #DFC809",
">X c #E3CB07",
",X c #E4CB07",
"<X c #E4CC07",
"1X c #E5CC07",
"2X c #E6CC07",
"3X c #E6CD07",
"4X c #E7CD07",
"5X c #E7CE06",
"6X c #E8CE06",
"7X c #E9CF06",
"8X c #EACF06",
"9X c #E0C808",
"0X c #E1C908",
"qX c #E2CA08",
"wX c #E3CA08",
"eX c #E3CB08",
"rX c #ECD105",
"tX c #EDD205",
"yX c #EFD304",
"uX c #EFD404",
"iX c #F2D603",
"pX c #F3D603",
"aX c #F4D703",
"sX c #F5D703",
"dX c #F0D404",
"fX c #F1D504",
"gX c #F2D504",
"hX c #F5D803",
"jX c #F6D802",
"kX c #F6D902",
"lX c #F7D902",
"zX c #F6D803",
"xX c #F9DB01",
"cX c #FADB01",
"vX c #F8DA02",
"bX c #F9DA02",
"nX c #F9DB02",
"mX c #FBDC01",
"MX c #FCDC01",
"NX c #FCDD01",
"BX c #FDDD01",
"VX c #FDDE00",
"CX c #FDDE01",
"ZX c #FFDF00",
"AX c #FFE000",
"SX c #FFE100",
"DX c #FFE200",
"FX c #FFE300",
/* pixels */
"                                                    :.2.:.:.2.:.:.:.:.2.:.2.                                                    ",
"                                            >.>.>.:.,.,.=.:.:.:.:.=.=.:.:.=.:.2.:.:.                                            ",
"                                        2.>.,.,.3., t m } #.W.!.Q.W.%. .m u , 3.:.:.:.:.                                        ",
"                                  :.2.:.,.8.z ( i. X0XdXvXAXBXBXBXBXBXvXdX0X Xi.^ k 8.=.:.2.:.                                  ",
"                                :.:.=., K g.#XlXBXtX}.G.h.Q.#.@.@.#.Q.z.G.@XtXBXgX#Xh.Y * :.:.2.                                ",
"                            :.:.:.* ^ F.dXMX1XA.#.A 8 ; 3.:.=.<.:.=.:.8.* 6 A #.B.1XBXiXG.^ * ,.:.2.                            ",
"                          :.:.8.D A.gXvX^.&.g 9.:.,.:.:.2.2.:.2.:.2.2.:.=.:.:.:.9.B w.^.bXgXB.D 8.:.:.                          ",
"                      2.:.:.4 W.1XMX/.{ 0 2.<.:.:.:.2.:.2.:.2.:.2.:.:.2.2.:.:.:.:.,.:.8 O./.MX1XW.5 :.:.:.                      ",
"                    :.:.2.B G.mX1XW.0 :.:.:.2.:.2.:.2.:.2.:.2.:.:.2.:.2.:.2.:.2.:.2.:.:.:.0 W.1XmXG.B >.>.>.                    ",
"                  :.:.3.U {.BXU.D 3.:.:.:.2.:.2.:.2.:.2.:.2.:.2.2.:.2.:.2.:.2.:.2.:.2.:.:.:.3.D U.BX{.U 3.>.>.                  ",
"                2.:.3.) 0XlXj.q :.:.2.:.2.:.2.:.2.:.2.:.2.:.2.:.:.2.:.2.:.2.:.2.:.2.:.2.:.2.2.=.q j.lX0X( 3.>.>.                ",
"              2.:.3.] 2XiXW.* :.:.2.:.2.:.2.:.2.:.2.:.2.:.2.:.2.2.:.2.:.2.:.2.:.2.:.2.:.2.:.2.:.>.* W.iX3X) 3.>.2.              ",
"              :.:.Y 0XiXw.@ :.:.2.:.2.:.2.:.2.:.2.:.2.:.2.:.2.:.:.2.:.2.:.2.:.2.:.2.:.2.:.2.:.2.>.:.9.Y.iX0XU >.:.              ",
"            :.:.B {.vXW.@ :.2.:.:.2.:.2.:.2.:.2.:.2.:.2.:.2.:.2.2.:.2.:.2.:.2.:.2.:.2.:.2.:.2.:.>.>.:.% W.lX{.B :.2.            ",
"          2.:.: G.BXh.* :.2.:.2.2.:.2.:.2.:.2.:.2.:.2.:.2.:.2.:.:.2.:.2.:.2.:.2.:.2.:.2.:.2.:.2.:.2.>.:.* h.BXG.: :.:.          ",
"          2.8.Q.vX|.0 :.:.:.2.:.:.2.:.2.:.2.:.2.:.2.:.2.:.2.:.2.2.:.2.:.2.:.2.:.2.:.2.:.2.:.2.:.2.:.:.:.:.q P.BXW.8.:.          ",
"        :.:.D 1X1XD :.:.:.:.2.:.2.:.2.:.2.:.2.:.:.2.:.2.:.2.2.:.2.:.2.:.>.>.>.>.2.:.2.:.2.:.2.:.:.2.:.2.2.:.D 1X1XD :.:.        ",
"      2.:.* B.BXW.8.:.:.:.2.:.2.:.2.:.2.:.2.:.2.2.:.2.:.2.:.2.2.:.2.:.:.>.>.>.>.:.2.:.2.:.2.:.2.2.:.2.:.:.:.2.W.BXB.; :.:.      ",
"      :.:.^ iX/.q ,.2.:.2.:.2.:.2.:.2.:.2.:.2.:.:.2.:.:.:.:.=.=.:.<.:.3.>.>.>.>.2.:.2.:.2.:.2.:.:.2.:.2.:.2.:.0 ^.aX^ :.2.      ",
"      :.* D.vXX.:.2.:.2.:.2.:.2.:.2.:.2.:.2.:.2.:.:.:.=.2.: C O.X.C , 3.=.:.>.>.:.2.:.2.:.2.:.2.2.:.2.:.2.:.:.:.X.vXG., :.      ",
"    :.:.Y dX^.6 :.:.2.:.:.2.:.2.2.:.2.:.2.:.:.,.=.3.9 Y u.OX6XmXvXrX X!.Y 4 . =.:.2.2.:.:.:.2.:.:.2.2.:.2.:.2.:.8 ^.iXI :.:.    ",
"    :.8.z.BX&.2.:.2.:.2.2.:.2.:.:.2.:.:.<.<.9.k ( z._.iXBXAXAXAXBXAXAXAXtX_.s.) k 9.=.:.:.:.:.2.2.:.:.2.:.2.:.2.:.w.mXh.8.:.    ",
"  2.,.k #X0Xv :.2.:.2.:.:.2.:.2.:.=.:.; v X.m.*XlXAXAXAXAXAXAXBXAXAXAXBXAXAXAXlX#Xn.X.f % :.:.:.:.:.:.:.2.:.2.:.,.g 0X@Xk ,.2.  ",
"  :.:.^ lXS.@ :.:.2.:.2.:.:.,.3., N #.A.9XvXAXAXAXBXAXAXAXBXAXBXBXBXAXAXAXAXBXAXAXBXvX9XA.#.B - 2.:.:.2.:.2.:.2.3.9.B.lX^ :.:.  ",
"  2.3.p.BX#.:.:.2.:.2.:.3.: m W.|.6XBXAXAXAXAXAXBXBXAXAXBXAXAXAXAXAXBXAXAXAXBXAXAXAXBXAXAXmX2XU.W.F : 2.:.2.:.2.3.:.$.BXi.3.2.  ",
"  :.,  XtXA :.:.:.2.:.:.v  XiXBXBXAXAXBXBXAXBXAXAXAXAXBXAXAXBXAXAXBXAXAXBXAXBXAXBXAXAXAXBXAXAXAXBXdX|.g :.:.2.:.2.,.A tX X, :.  ",
"2.,.t 0X}.6 :.2.2.:.2.=.q s.'.tXAXBXAXAXAXAXAXAXAXAXAXBXAXBXAXBXAXAXBXBXAXBXAXAXBXAXAXAXAXBXAXAXdX'.p.0 :.:.:.2.2.:.8 }.9Xt :.:.",
"2.,.F iXF.; :.:.:.2.2.2.2.8.6 Y s.tXiXBXAXAXBXBXBXBXAXAXAXBXAXAXBXAXAXAXAXAXAXBXAXAXAXAXBXrXOXu.Y 6 2.:.:.2.2.:.:.:.; G.dXm =.:.",
":.,.] vXj.. :.2.2.:.2.:.2.:.:.=.s J.( q.D.>XBXAXAXAXBXAXAXBXBXAXBXAXAXAXBXAXAXAXAXmX3XG.Y.D : 2.:.:.:.2.:.2.:.2.:.2.8.z.bX} :.:.",
"2.,.#.AXW.:.2.:.:.2.:.2.:.2.2.=.f A.: :.* v @.m.*XlXAXAXAXAXAXAXAXAXBXAXAXAXlX*Xm.O.v * 2.=.=.:.:.:.2.:.2.:.2.:.2.:.:.Q.BX#.<.2.",
":.=.W.BX#.=.:.2.2.:.2.:.2.:.2.:.f S.: :.:., X.T A  .j.{.iXAXAXAXAXAXAXiX{.h. .A T O., <.:.2.:.2.:.2.:.2.:.2.:.2.:.2.=.#.BXR.<.:.",
"2.:.!.BX@.:.2.:.:.2.:.2.:.2.:.=.f A.6 :.:.t 0XtXOXu.Q A Q i.~.2X2X~.u.Q V ( !.OXtX9Xt <.2.:.2.:.2.:.2.:.2.:.2.:.2.:.:.@.BX!.:.:.",
":.:.u.BX@.=.:.2.:.2.:.2.:.2.2.2.v G.8 :.,.s 3XAXAXAXiX_.z. .A F F A } f.{.uXAXAXAX0Xt :.:.2.:.2.:.2.:.2.:.2.:.2.:.2.,.O.BX!.:.:.",
":.:.W.BX#.=.2.:.2.:.2.:.2.2.:.9.!.6X#.9.,.s 3XAXAXAXBXAXAXlX*XU.U.;XlXAXAXBXAXAXAX0Xt :.2.:.2.:.2.:.2.:.2.:.2.:.2.:.:.#.AXW.:.:.",
":.=.$.BXQ.:.:.2.:.2.:.2.:.2.=.g 0XFX&Xq =.t 0XAXBXAXAXAXAXAXAXAXAXAXAXAXBXAXBXAXAX1Xz =.:.2.:.2.:.2.:.2.:.2.:.2.:.2.,.Q.BX$.=.:.",
":.:.} vXz.8.2.:.2.:.2.:.2.:.2.:  XAXK., :.z eXAXBXAXBXAXAXBXAXAXAXAXAXBXAXAXBXAXBX1Xz :.2.:.2.:.2.:.2.:.2.:.2.:.2.:.8.z.vX} =.2.",
":.=.m dXG.* :.:.:.2.:.2.2.:.2.:.K uXs.3.,.8 @XAXAXAXAXAXBXAXAXBXAXAXBXAXAXAXBXAXAX{.4 :.2.:.2.:.:.2.:.2.:.2.:.2.:.:.* G.gXF :.:.",
":.=.t 9X}.8 :.:.2.:.2.:.:.2.:.<.v rX X, ,.3.T.gXAXAXAXAXAXBXAXAXAXAXAXAXAXAXAXAXaX&.3.3.:.2.:.2.2.:.2.:.2.:.2.:.:.:.6 @X>Xt =.:.",
"  :.,  XtXA <.2.:.2.:.2.2.:.2.<.U iXeXs :.:.*  .c. X*X2XtXiXgXlXlXaXiXrX2X*X Xc.] * :.:.2.:.2.:.:.2.:.2.:.2.:.2.:.:.A rX X, 2.  ",
"  2.8.p.MX$.:.:.2.:.2.:.:.2.:.:.#.BXtXK :.>.>.>.X , 9 v F ~ ] }  .] E F x q , X =.:.2.2.:.2.:.2.2.:.2.:.2.:.2.:.:.:.$.BXa.3.2.  ",
"  2.:.Q aXA.@ :.:.2.:.2.:.2.:.8.n.AXvX..:.:.2.:.:.:.,.,.,.,.,.,.=.:.=.:.<.,.:.:.2.:.2.:.2.:.2.:.2.:.2.:.2.:.2.:.:.@ A.aX^ :.:.  ",
"  2.:.k #X0Xg =.2.:.2.:.2.:.:.k @XAXAXY.=.:.:.2.2.:.2.:.2.2.:.2.:.:.:.:.2.:.2.:.:.2.:.2.:.2.:.2.:.2.:.2.:.2.:.2.=.g 0X@Xk :.:.  ",
"    :.8.z.BXY.2.:.2.:.2.:.:.=.^ iXAXAXi.:.2.2.:.:.2.:.2.2.:.2.:.:.2.:.2.:.2.:.2.2.:.2.:.2.:.2.:.2.:.2.:.2.:.:.:.2.Y.BXz.8.:.    ",
"    :.:.Y dX^.6 :.:.2.:.2.:.9.x.AXAXAXj.8.:.:.2.2.:.2.:.:.2.:.2.2.:.2.:.2.:.2.:.:.2.:.2.:.2.:.2.:.2.:.2.:.2.:.:.6 ^.dXY :.2.    ",
"      :.* F.vXO.:.:.:.2.:.:.s ;XAXAXAXN.9.:.2.:.:.2.:.2.:.2.:.2.:.2.:.2.:.2.:.2.2.:.2.:.2.:.2.:.2.:.2.:.2.:.2.:.O.bXG.* :.      ",
"      2.:.Q gX^.q :.2.:.:.:.z  XaXlX3X@.8.3.:.2.2.:.2.:.2.:.2.:.2.:.2.:.2.:.2.:.:.2.:.2.:.2.:.2.:.2.:.2.:.2.:.q /.gX^ :.:.      ",
"      :.:.* A.MXW.3.:.:.:.:.>.q Q ] B 9.:.:.2.:.:.2.:.2.:.2.:.2.:.2.:.2.:.2.:.2.2.:.2.:.2.:.2.:.2.:.2.:.:.:.3.W.BXB.* 2.2.      ",
"        :.:.D 1X1XD :.2.:.2.:.:.:.=.:.:.2.2.:.2.2.:.2.:.2.:.2.:.2.:.2.:.2.:.2.:.:.2.:.2.:.2.:.2.:.2.:.2.:.:.F 0X3XF ,.:.        ",
"          :.8.W.vX Xq :.:.2.:.2.:.2.:.2.:.2.:.2.:.2.:.2.:.2.:.2.:.2.:.2.:.2.:.2.:.2.:.2.:.2.:.2.2.:.2.:.:.q U.mXW.8.:.          ",
"          :.:.5 G.BXj.* :.:.2.:.2.:.2.:.2.:.2.:.2.:.2.:.2.:.2.:.2.:.2.:.2.:.2.:.2.:.2.:.2.:.2.:.:.2.:.:.* j.BXG.4 :.:.          ",
"            :.:.B {.lXW.@ :.:.2.:.2.:.2.:.2.:.2.:.2.:.2.:.2.:.2.:.2.:.2.:.2.:.2.:.2.:.2.:.2.:.2.2.2.:.9.W.lX{.B :.:.            ",
"              2.2.U 0XiX&.@ :.:.2.:.2.:.2.:.2.:.2.:.2.:.2.:.2.:.2.:.2.:.2.:.2.:.2.:.2.:.2.:.2.:.2.:.@ Y.gX0XU 2.:.              ",
"              :.:.3.) 2XgXQ.* :.:.2.:.2.2.:.2.:.:.2.:.2.:.2.:.2.:.2.:.2.:.2.:.2.:.2.:.2.2.:.2.:.:.* W.gX2X) 3.:.2.              ",
"                2.:.3.] 0XvXh.q :.:.2.:.:.2.:.2.2.:.2.:.2.:.2.:.2.:.2.:.2.:.2.:.2.:.2.:.:.2.:.:.q h.lX0X) . :.:.                ",
"                  :.:.3.T }.BX XD 3.,.:.2.:.2.:.:.2.:.2.:.2.:.2.:.2.:.2.:.2.:.2.:.2.:.2.:.,.3.D P.BX{.Y 3.:.:.                  ",
"                    :.:.2.B G.vX1XW.q :.:.2.:.2.2.:.2.:.2.:.2.:.2.:.2.:.2.:.2.:.2.:.:.:.:.q W.1XBXG.B :.:.:.                    ",
"                      2.:.:.: W.3XmX/.X.6 3.:.2.2.2.:.2.:.2.:.:.:.2.:.2.:.:.2.:.:.:.:.0 { ^.BX1XW.: :.2.:.                      ",
"                          2.:.8.F B.iXbX^.w.v 9.:.=.:.:.2.:.2.:.2.:.2.2.:.:.=.:.@ g &.^.vXgXB.D 8.:.:.                          ",
"                            :.:.,.* ^ G.dXMX0XB.@.A 0 * 3.:.:.:.<.:.,.8.* 6 A $.A.0XBXdXD.~ * ,.:.2.                            ",
"                                2.:.:.* I h.#XlXBXtX}.G.z.Q.%.@.O.#.Q.z.G.}.tXMXlX@Xh.m , :.:.2.                                ",
"                                  :.2.:.:.8.q Q s. X0XiXvXBXBXBXBXBXBXbXiX9X Xp.Q q 8.:.:.2.:.                                  ",
"                                        2.:.:.:.3., r F ] $.W.t.t.W.#.} m t , 8.:.:.>.3.                                        ",
"                                            :.2.2.:.:.=.=.:.=.:.:.:.,.,.,.:.:.:.:.2.                                            ",
"                                                    :.2.2.:.2.:.:.:.:.2.:.2.                                                    "
};
